<?xml version="1.0" encoding="utf-8"?>
<!-- Generator: Adobe Illustrator 27.8.1, SVG Export Plug-In . SVG Version: 6.00 Build 0)  -->
<svg version="1.1" id="Layer_1" xmlns="http://www.w3.org/2000/svg" xmlns:xlink="http://www.w3.org/1999/xlink" x="0px" y="0px"
	 viewBox="0 0 1366 768" style="enable-background:new 0 0 1366 768;" xml:space="preserve">
<style type="text/css">
	.st0{fill:#1A1A1A;}
	.st1{fill:#FFFFFF;stroke:#FFFFFF;stroke-miterlimit:10;}
	.st2{font-family:'BebasNeue-Regular';}
	.st3{font-size:54px;}
	.st4{fill:#E453F9;stroke:#FFFFFF;stroke-miterlimit:10;}
	.st5{fill:#F281C4;stroke:#FFFFFF;stroke-miterlimit:10;}
	.st6{fill:#035B2D;stroke:#FFFFFF;stroke-miterlimit:10;}
	.st7{fill:#D6FF8F;stroke:#FFFFFF;stroke-miterlimit:10;}
	.st8{fill:#007A8E;stroke:#FFFFFF;stroke-miterlimit:10;}
	.st9{fill:none;stroke:#FFFFFF;stroke-width:5;stroke-miterlimit:10;}
	.st10{stroke:#8CC63F;stroke-miterlimit:10;}
	.st11{font-size:54px;glyph-orientation-vertical:0;writing-mode:tb;}
	.st12{fill:none;stroke:url(#SVGID_1_);stroke-width:4;stroke-miterlimit:10;}
</style>
<g>
	<rect x="0.5" y="0.5" class="st0" width="1365" height="767"/>
	<path d="M1365,1v766H1V1H1365 M1366,0H0v768h1366V0L1366,0z"/>
</g>
<text transform="matrix(1 0 0 1 509.6279 434.1992)" class="st1 st2 st3">jOYEUX iRASHUBIJE</text>
<circle class="st1" cx="52.64" cy="714.78" r="27.78"/>
<circle class="st4" cx="112.19" cy="718.22" r="27.78"/>
<circle class="st4" cx="174.36" cy="718.22" r="27.78"/>
<circle class="st4" cx="124.64" cy="644.78" r="27.78"/>
<circle class="st4" cx="184.19" cy="648.22" r="27.78"/>
<circle class="st1" cx="246.36" cy="648.22" r="27.78"/>
<circle class="st1" cx="1321.78" cy="729.89" r="27.78"/>
<circle class="st1" cx="1322.74" cy="670.25" r="27.78"/>
<circle class="st1" cx="1320.16" cy="608.13" r="27.78"/>
<circle class="st1" cx="1248.84" cy="660.87" r="27.78"/>
<circle class="st1" cx="1249.81" cy="601.22" r="27.78"/>
<circle class="st1" cx="1247.22" cy="539.11" r="27.78"/>
<circle class="st5" cx="1312.78" cy="739.89" r="27.78"/>
<circle class="st5" cx="1313.74" cy="680.25" r="27.78"/>
<circle class="st5" cx="1311.16" cy="618.13" r="27.78"/>
<circle class="st5" cx="1239.84" cy="670.87" r="27.78"/>
<circle class="st5" cx="1240.81" cy="611.22" r="27.78"/>
<circle class="st5" cx="1238.22" cy="549.11" r="27.78"/>
<circle class="st1" cx="1302.78" cy="236.89" r="27.78"/>
<circle class="st6" cx="1303.74" cy="177.25" r="27.78"/>
<circle class="st1" cx="1301.16" cy="115.13" r="27.78"/>
<circle class="st1" cx="1229.84" cy="167.87" r="27.78"/>
<circle class="st6" cx="1230.81" cy="108.22" r="27.78"/>
<circle class="st1" cx="1228.22" cy="46.11" r="27.78"/>
<circle class="st7" cx="120.78" cy="235.89" r="27.78"/>
<circle class="st7" cx="121.74" cy="176.25" r="27.78"/>
<circle class="st7" cx="119.16" cy="114.13" r="27.78"/>
<circle class="st8" cx="47.84" cy="166.87" r="27.78"/>
<circle class="st8" cx="48.81" cy="107.22" r="27.78"/>
<circle class="st8" cx="46.22" cy="45.11" r="27.78"/>
<circle class="st9" cx="665.5" cy="278.5" r="88"/>
<circle class="st9" cx="711.5" cy="264.5" r="18"/>
<circle class="st9" cx="615.5" cy="271.5" r="18"/>
<path class="st9" d="M624.5,316.5c9.72,14.77,26.4,22.96,43,21c18.86-2.23,42.29-28.57,44-31"/>
<text transform="matrix(1 0 0 1 457 214)" class="st10 st2 st11">Joyeux</text>
<text transform="matrix(1 0 0 1 935 80)" class="st5 st2 st11">Irashubiej</text>
<linearGradient id="SVGID_1_" gradientUnits="userSpaceOnUse" x1="35.6354" y1="373.9392" x2="1323.8634" y2="373.9392">
	<stop  offset="0" style="stop-color:#FFFFFF"/>
	<stop  offset="1" style="stop-color:#000000"/>
</linearGradient>
<path class="st12" d="M121.5,327.5c100.55-12.63,197.68,34.44,245,118c48.08,84.92-37.35,172.37,5,223
	c56.29,67.29,210.81-64.33,443-28c159.26,24.92,228.21,109,273,73c76.18-61.24-94.62-327.49-1-415c54.96-51.38,159.02-1.82,171-32
	c14.38-36.21-120.3-145.6-279-202c-53.22-18.91-366.76-130.35-561,23c-115.72,91.35-80.4,190.87-266,380
	c-51.58,52.56-118.7,110.5-111,121c12.64,17.23,184.96-150.05,308-101c111.24,44.34,104.76,234.63,175,239
	c73.07,4.55,101.93-200.02,198-209c107.76-10.07,179.4,237.26,262,222c87.01-16.07,55.28-299.33,179-340
	c55.34-18.19,128.46,16.54,151,65c44.12,94.86-98.74,257.07-139,241c-66.51-26.55,153.18-537.31,4-635
	c-82.02-53.71-181.33,79.13-404,39c-119.42-21.52-159.56-72.11-237-46c-114.06,38.45-137.65,185.5-191,177
	c-58.39-9.3-50.64-188.76-101-199c-31.85-6.48-90.45,54.02-208,357"/>
</svg>
